<svg width="65" height="63" viewBox="0 0 65 63" fill="none" xmlns="http://www.w3.org/2000/svg">
<g id="Group" filter="url(#filter0_d_98_25)">
<path id="Vector" d="M33.0901 0H31.5C16.3122 0 4 12.3122 4 27.5C4 42.6878 16.3122 55 31.5 55H33.0901C48.2779 55 60.5901 42.6878 60.5901 27.5C60.5901 12.3122 48.2779 0 33.0901 0Z" fill="#0B84EE"/>
<path id="Vector_2" d="M31.8036 14C25.8472 14 21 18.7437 21 24.5758C21 32.8627 30.788 41.419 31.2046 41.7783C31.3762 41.9265 31.5899 42 31.8036 42C32.0172 42 32.2309 41.9265 32.4025 41.7795C32.8191 41.419 42.6071 32.8627 42.6071 24.5758C42.6071 18.7437 37.7599 14 31.8036 14ZM31.8036 30.3333C28.4941 30.3333 25.8016 27.7165 25.8016 24.5C25.8016 21.2835 28.4941 18.6667 31.8036 18.6667C35.113 18.6667 37.8055 21.2835 37.8055 24.5C37.8055 27.7165 35.113 30.3333 31.8036 30.3333Z" fill="white"/>
</g>
<defs>
<filter id="filter0_d_98_25" x="0" y="0" width="64.5903" height="63" filterUnits="userSpaceOnUse" color-interpolation-filters="sRGB">
<feFlood flood-opacity="0" result="BackgroundImageFix"/>
<feColorMatrix in="SourceAlpha" type="matrix" values="0 0 0 0 0 0 0 0 0 0 0 0 0 0 0 0 0 0 127 0" result="hardAlpha"/>
<feOffset dy="4"/>
<feGaussianBlur stdDeviation="2"/>
<feComposite in2="hardAlpha" operator="out"/>
<feColorMatrix type="matrix" values="0 0 0 0 0 0 0 0 0 0 0 0 0 0 0 0 0 0 0.25 0"/>
<feBlend mode="normal" in2="BackgroundImageFix" result="effect1_dropShadow_98_25"/>
<feBlend mode="normal" in="SourceGraphic" in2="effect1_dropShadow_98_25" result="shape"/>
</filter>
</defs>
</svg>
