<svg width="733" height="126" viewBox="0 0 733 126" fill="none" xmlns="http://www.w3.org/2000/svg">
<g clip-path="url(#clip0_100_88)">
<path d="M6.74001 64.09C6.74001 63.9998 6.77582 63.9133 6.83958 63.8496C6.90335 63.7858 6.98983 63.75 7.08 63.75H53.91C54.0002 63.75 54.0867 63.7142 54.1504 63.6504C54.2142 63.5867 54.25 63.5002 54.25 63.41V59.09C54.25 58.9998 54.2142 58.9133 54.1504 58.8496C54.0867 58.7858 54.0002 58.75 53.91 58.75H7.09C6.99982 58.75 6.91334 58.7142 6.84958 58.6504C6.78582 58.5867 6.75 58.5002 6.75 58.41V6.59C6.75 6.49982 6.78582 6.41334 6.84958 6.34958C6.91334 6.28582 6.99982 6.25 7.09 6.25H55.66C55.7502 6.25 55.8367 6.21418 55.9004 6.15042C55.9642 6.08666 56 6.00018 56 5.91V1.59C56 1.49982 55.9642 1.41334 55.9004 1.34958C55.8367 1.28582 55.7502 1.25 55.66 1.25H1.34C1.24982 1.25 1.16334 1.28582 1.09958 1.34958C1.03582 1.41334 1 1.49982 1 1.59V122.16C1 122.25 1.03582 122.337 1.09958 122.4C1.16334 122.464 1.24982 122.5 1.34 122.5H6.39999C6.49017 122.5 6.57665 122.464 6.64041 122.4C6.70417 122.337 6.74001 122.25 6.74001 122.16V64.09Z" stroke="white" stroke-width="2"/>
<path d="M6.74001 64.09C6.74001 63.9998 6.77582 63.9133 6.83958 63.8496C6.90335 63.7858 6.98983 63.75 7.08 63.75H53.91C54.0002 63.75 54.0867 63.7142 54.1504 63.6504C54.2142 63.5867 54.25 63.5002 54.25 63.41V59.09C54.25 58.9998 54.2142 58.9133 54.1504 58.8496C54.0867 58.7858 54.0002 58.75 53.91 58.75H7.09C6.99982 58.75 6.91334 58.7142 6.84958 58.6504C6.78582 58.5867 6.75 58.5002 6.75 58.41V6.59C6.75 6.49982 6.78582 6.41334 6.84958 6.34958C6.91334 6.28582 6.99982 6.25 7.09 6.25H55.66C55.7502 6.25 55.8367 6.21418 55.9004 6.15042C55.9642 6.08666 56 6.00018 56 5.91V1.59C56 1.49982 55.9642 1.41334 55.9004 1.34958C55.8367 1.28582 55.7502 1.25 55.66 1.25H1.34C1.24982 1.25 1.16334 1.28582 1.09958 1.34958C1.03582 1.41334 1 1.49982 1 1.59V122.16C1 122.25 1.03582 122.337 1.09958 122.4C1.16334 122.464 1.24982 122.5 1.34 122.5H6.39999C6.49017 122.5 6.57665 122.464 6.64041 122.4C6.70417 122.337 6.74001 122.25 6.74001 122.16V64.09Z" stroke="white" stroke-width="2"/>
<path d="M91.1402 10.19C72.4002 2.65998 64.4902 27.98 80.1902 32.59C85.8702 34.25 96.5502 32.27 95.5502 24.11C95.5102 23.7766 95.4436 23.7733 95.3502 24.1C93.9169 28.9467 90.9469 31.5666 86.4402 31.96C69.4202 33.45 71.4702 6.52998 87.7602 10.44C90.6202 11.1266 92.7136 12.9133 94.0402 15.8C94.1602 16.0666 94.2402 16.0533 94.2802 15.76C94.6802 12.92 93.8902 11.3 91.1402 10.19Z" stroke="white" stroke-width="2"/>
<path d="M126.22 11.33L126.17 30.58C126.17 30.96 126.013 31.2533 125.7 31.46L124.63 32.18C124.057 32.56 124.113 32.75 124.8 32.75H130C130.413 32.75 130.457 32.62 130.13 32.36C129.103 31.5467 128.573 30.1767 128.54 28.25C128.453 22.6167 128.453 16.95 128.54 11.25C128.547 10.9167 128.717 10.75 129.05 10.75H136.38C136.847 10.75 137.12 10.98 137.2 11.44L137.37 12.32C137.53 13.1533 137.693 13.1533 137.86 12.32C138.027 11.4733 138.067 10.6267 137.98 9.78C137.933 9.37333 137.703 9.18334 137.29 9.21001C130.577 9.71001 123.867 9.68999 117.16 9.14999C116.887 9.12999 116.75 9.25667 116.75 9.53V11.97C116.75 12.7833 116.937 12.8267 117.31 12.1L117.78 11.22C117.94 10.9067 118.193 10.75 118.54 10.75H125.64C126.033 10.75 126.227 10.9433 126.22 11.33Z" stroke="white" stroke-width="2"/>
<path d="M441.56 25.27L443.66 30.52C443.793 30.8533 443.73 31.1467 443.47 31.4L442.71 32.16C442.297 32.5734 442.383 32.7767 442.97 32.77L449 32.65C449.433 32.6367 449.45 32.5433 449.05 32.37C445.6 30.86 439.07 13.74 437.09 9.47002C436.937 9.12336 436.78 9.12336 436.62 9.47002C434.73 13.62 428.03 30.65 424.67 32.15C424.03 32.4367 424.063 32.5933 424.77 32.62L430.23 32.81C430.71 32.8234 430.783 32.66 430.45 32.32L429.46 31.34C429.18 31.0534 429.117 30.7267 429.27 30.36L431.3 25.49C431.487 25.0367 431.823 24.81 432.31 24.81L440.84 24.78C441.187 24.78 441.427 24.9433 441.56 25.27Z" stroke="white" stroke-width="2"/>
<path d="M616.62 22.25H618.27C618.67 22.25 618.91 22.4467 618.99 22.84C621.63 35.8 640.26 36.92 644.48 24.6C649.76 9.17002 623.54 1.61001 618.97 19.18C618.87 19.56 618.623 19.75 618.23 19.75H616.71C616.276 19.75 616.05 19.5334 616.03 19.1C615.93 16.9 615.06 10.11 618.52 9.95001C620.646 9.85001 620.626 9.72335 618.46 9.57002C616.086 9.40335 613.7 9.40001 611.3 9.56001C610.7 9.60001 610.693 9.68002 611.28 9.80002C613.09 10.17 613.71 11.13 613.73 13.02C613.81 18.1933 613.776 23.38 613.63 28.58C613.57 30.68 612.86 31.97 611.5 32.45C610.926 32.65 610.946 32.75 611.56 32.75H618.25C620.97 32.75 620.996 32.5434 618.33 32.13C617.61 32.0167 616.996 31.6867 616.49 31.14C616.256 30.8867 616.14 30.59 616.14 30.25L616.06 22.82C616.053 22.44 616.24 22.25 616.62 22.25Z" stroke="white" stroke-width="2"/>
<path d="M165.53 34.68C165.57 32.67 163.33 31.78 161.8 32.77C161.419 33.0143 161.136 33.3839 160.999 33.8148C160.862 34.2457 160.88 34.7109 161.05 35.13C162.35 38.3 166.79 36.99 168.78 35.72C169.9 35.0133 170.94 33.6267 171.9 31.56C174.933 25.06 177.937 18.5433 180.91 12.01C181.4 10.94 182.31 10.47 183.15 9.74001C183.423 9.50668 183.38 9.39333 183.02 9.4L177.48 9.54C176.733 9.56 176.643 9.81334 177.21 10.3C177.563 10.5933 177.773 10.9967 177.84 11.51C177.88 11.7967 177.847 12.07 177.74 12.33L171.16 28.34C170.973 28.8 170.78 28.8033 170.58 28.35C167.86 22.2 162.74 12.09 164.36 9.97C164.613 9.63 164.53 9.46334 164.11 9.47L159 9.51C158.46 9.51 158.423 9.65 158.89 9.93L160.41 10.82C160.737 11.0067 160.98 11.2733 161.14 11.62L169.64 29.79C169.76 30.0367 169.773 30.2933 169.68 30.56C169.007 32.44 167.823 33.9233 166.13 35.01C165.723 35.2767 165.523 35.1667 165.53 34.68Z" stroke="white" stroke-width="2"/>
<path d="M224 30.59V11.82C224 11.34 224.203 10.9767 224.61 10.73L226.16 9.81C226.513 9.60333 226.483 9.5 226.07 9.5H210.48C210.02 9.5 209.98 9.63333 210.36 9.89999L211.87 10.94C212.163 11.1467 212.307 11.4333 212.3 11.8C212.21 17.41 211.79 26.14 208.01 30.97C207.803 31.2367 207.533 31.3867 207.2 31.42L205.96 31.54C205.673 31.5667 205.527 31.7267 205.52 32.02C205.5 33.03 205.27 39.01 205.84 39.37C206.207 39.6033 206.427 39.51 206.5 39.09C207.73 32.11 213 32.73 218.55 32.75C222.95 32.77 225.27 35.02 226.16 39.12C226.573 41.02 226.823 40.9967 226.91 39.05C227.017 36.7633 227.043 34.48 226.99 32.2C226.977 31.7933 226.77 31.5733 226.37 31.54L224.77 31.42C224.257 31.38 224 31.1033 224 30.59Z" stroke="white" stroke-width="2"/>
<path d="M273.7 15.47C273.82 23.0033 273.83 27.85 273.73 30.01C273.67 31.1567 272.987 31.91 271.68 32.27C270.54 32.59 270.564 32.75 271.75 32.75H278.25C281.064 32.75 281.09 32.5433 278.33 32.13C277.677 32.03 277.12 31.7533 276.66 31.3C276.387 31.0267 276.25 30.6967 276.25 30.31V11.39C276.25 11.01 276.424 10.7433 276.77 10.59L278.57 9.81C279.15 9.55667 279.124 9.43334 278.49 9.44L271.84 9.53C271.514 9.53 271.487 9.62001 271.76 9.80001L273.08 10.63C273.567 10.9367 273.6 11.2867 273.18 11.68L257.41 26.68C257.09 26.98 256.92 26.91 256.9 26.47C256.554 19.81 256.537 14.8767 256.85 11.67C256.944 10.6833 257.624 10.15 258.89 10.07C259.004 10.0633 259.1 10.02 259.18 9.94L259.41 9.71001C259.61 9.51001 259.57 9.41333 259.29 9.42L252 9.54C251.027 9.55333 251.007 9.66667 251.94 9.88001C253.46 10.2133 254.224 11 254.23 12.24C254.29 20.8533 254.284 26.7533 254.21 29.94C254.177 31.2933 253.467 31.9967 252.08 32.05C251.96 32.05 251.88 32.11 251.84 32.23C251.807 32.3233 251.777 32.4167 251.75 32.51C251.697 32.67 251.754 32.75 251.92 32.75H258.92C259.4 32.75 259.43 32.6333 259.01 32.4L257.17 31.37C256.637 31.07 256.594 30.71 257.04 30.29L273.22 15.26C273.534 14.9733 273.694 15.0433 273.7 15.47Z" stroke="white" stroke-width="2"/>
<path d="M310.39 22.73C307.27 25.88 304.86 30.51 300.74 32.36C300.473 32.48 300.486 32.55 300.78 32.57C307.24 33.01 309.85 27.01 313.13 22.82C313.35 22.5333 313.64 22.3467 314 22.26L315.35 21.93C316.41 21.6767 316.403 21.4667 315.33 21.3L310.75 20.56C310.416 20.5067 310.13 20.3667 309.89 20.14C306.57 16.95 307.37 11.85 312.17 10.94C313.723 10.6467 315.313 10.61 316.94 10.83C317.306 10.8767 317.49 11.0833 317.49 11.45C317.51 17.63 317.51 23.8133 317.49 30C317.483 31.04 316.873 31.8033 315.66 32.29C314.9 32.5967 314.93 32.75 315.75 32.75H321.67C322.176 32.75 322.213 32.6233 321.78 32.37L320.57 31.66C320.19 31.44 320 31.1067 320 30.66V11.55C320 11.0967 320.2 10.7667 320.6 10.56L322.05 9.78999C322.383 9.62333 322.363 9.52999 321.99 9.50999C317.01 9.27999 304.59 7.90999 305.19 16.18C305.41 19.25 307.42 21.12 310.23 22.06C310.643 22.2 310.696 22.4233 310.39 22.73Z" stroke="white" stroke-width="2"/>
<path d="M396.72 15.78C397.09 18.72 399.32 30.32 397.8 32.31C397.58 32.6033 397.653 32.75 398.02 32.75H403.5C404.707 32.75 404.743 32.58 403.61 32.24C402.323 31.86 401.61 31.2 401.47 30.26C400.47 23.3467 399.457 16.41 398.43 9.44999C398.42 9.38554 398.391 9.3258 398.345 9.27922C398.299 9.23265 398.24 9.20161 398.176 9.19054C398.112 9.17947 398.046 9.18893 397.987 9.21755C397.929 9.24617 397.881 9.29252 397.85 9.35L388.42 27.85C388.2 28.2767 387.98 28.2767 387.76 27.85L378.22 9.52999C378.183 9.45314 378.122 9.39044 378.047 9.35144C377.971 9.31245 377.885 9.29931 377.801 9.31405C377.717 9.32878 377.64 9.37058 377.582 9.43305C377.524 9.49552 377.488 9.57523 377.48 9.65999C376.473 16.4867 375.46 23.4133 374.44 30.44C374.32 31.2733 373.63 31.8767 372.37 32.25C371.23 32.5833 371.273 32.75 372.5 32.75H377.33C378.077 32.75 378.14 32.5366 377.52 32.11L376.89 31.68C376.577 31.4666 376.443 31.1733 376.49 30.8L378.17 16.24C378.25 15.52 378.457 15.4833 378.79 16.13L387.26 32.74C387.393 33 387.523 33 387.65 32.74L396.14 15.68C396.44 15.0666 396.633 15.1 396.72 15.78Z" stroke="white" stroke-width="2"/>
<path d="M489.95 11.45L490.02 20.11C490.027 20.5367 489.817 20.75 489.39 20.75H476.25C476.12 20.75 475.995 20.6984 475.903 20.6065C475.812 20.5146 475.76 20.39 475.76 20.26C475.73 17.43 474.7 11.38 477.64 9.9C478.387 9.52666 478.343 9.34667 477.51 9.36L471.18 9.48C470.573 9.49333 470.563 9.58001 471.15 9.74001C472.64 10.15 473.22 11.01 473.23 12.62C473.263 18.6667 473.267 24.7233 473.24 30.79C473.24 31.1833 473.063 31.47 472.71 31.65L471.83 32.08C470.917 32.5267 470.97 32.75 471.99 32.75H477.25C478.143 32.75 478.18 32.57 477.36 32.21C474.93 31.15 475.66 25.44 475.83 22.38C475.85 21.96 476.07 21.75 476.49 21.75H489.25C489.75 21.75 490 22 490 22.5V30.51C490 30.89 489.837 31.1834 489.51 31.39L488.15 32.23C487.597 32.5767 487.647 32.75 488.3 32.75H494.25C495.05 32.75 495.07 32.5967 494.31 32.29C492.95 31.74 492.52 30.95 492.52 29.43C492.487 23.5833 492.483 17.73 492.51 11.87C492.51 11.4767 492.66 11.15 492.96 10.89L494.2 9.80001C494.433 9.59334 494.397 9.49001 494.09 9.49001L488 9.5C487.52 9.50667 487.493 9.61667 487.92 9.83L489.43 10.6C489.777 10.7733 489.95 11.0567 489.95 11.45Z" stroke="white" stroke-width="2"/>
<path d="M522.97 26.48C522.743 22.68 522.69 18.8733 522.81 15.06C522.89 12.64 522.44 10.86 525.04 9.73C525.507 9.53 525.487 9.43 524.98 9.43C522.78 9.40333 520.573 9.44334 518.36 9.55001C518.073 9.57001 518.05 9.66001 518.29 9.82001L519.74 10.8C520.08 11.0267 520.25 11.3467 520.25 11.76V30.85C520.25 31.1433 520.117 31.3567 519.85 31.49L518.2 32.3C517.54 32.6267 517.58 32.7867 518.32 32.78L525.19 32.66C525.63 32.6533 525.653 32.5533 525.26 32.36L523.2 31.34C522.653 31.0667 522.603 30.7233 523.05 30.31L539.08 15.55C539.413 15.25 539.59 15.3233 539.61 15.77C539.937 22.51 539.96 27.4033 539.68 30.45C539.613 31.2433 539.003 31.83 537.85 32.21C536.75 32.57 536.8 32.75 538 32.75H544.25C545.263 32.75 545.283 32.5867 544.31 32.26C542.83 31.77 542.27 31 542.26 29.36C542.24 23.4933 542.24 17.6133 542.26 11.72C542.26 11.3467 542.413 11.0567 542.72 10.85L544.32 9.75C544.627 9.53667 544.593 9.43334 544.22 9.44001L537.71 9.53C537.137 9.53667 537.113 9.65 537.64 9.87L539.18 10.51C539.281 10.5518 539.37 10.6185 539.438 10.7038C539.507 10.789 539.553 10.8902 539.571 10.9979C539.59 11.1055 539.582 11.2162 539.547 11.3198C539.511 11.4233 539.451 11.5162 539.37 11.59L523.43 26.66C523.143 26.9333 522.99 26.8733 522.97 26.48Z" stroke="white" stroke-width="2"/>
<path d="M574.48 21.39C577.93 25.75 583.23 33.07 588.99 32.68C589.343 32.6533 589.36 32.5667 589.04 32.42C584.91 30.54 580.19 24.13 577.08 20.66C576.983 20.5533 576.929 20.4142 576.929 20.27C576.929 20.1258 576.983 19.9867 577.08 19.88C579.86 16.85 584.46 10.9 588.31 9.67998C588.97 9.47332 588.953 9.37999 588.26 9.39999L582.78 9.53999C582.14 9.55999 581.983 9.84665 582.31 10.4L582.45 10.63C582.617 10.9167 582.593 11.1867 582.38 11.44L574.5 20.69C574.3 20.9167 574.293 21.15 574.48 21.39Z" stroke="white" stroke-width="2"/>
<path d="M673.25 30.62V11.36C673.25 11.06 673.4 10.8866 673.7 10.84C686.42 9.00998 685.3 22.39 675.76 21.95C674.507 21.89 674.473 22.07 675.66 22.49C681.75 24.63 688.9 18.92 684.67 12.76C681.88 8.69998 673.31 9.12999 669.04 9.65999C668.82 9.68665 668.813 9.74332 669.02 9.82999C670.153 10.2967 670.723 11.27 670.73 12.75C670.757 18.4967 670.76 24.2467 670.74 30C670.733 31.0333 670.137 31.79 668.95 32.27C668.443 32.4766 668.463 32.61 669.01 32.67C671.003 32.8833 672.99 32.88 674.97 32.66C675.517 32.6 675.547 32.4467 675.06 32.2L673.84 31.59C673.447 31.39 673.25 31.0666 673.25 30.62Z" stroke="white" stroke-width="2"/>
<path d="M725.64 31.57L724.79 32.26C724.383 32.5933 724.443 32.7566 724.97 32.75L731.01 32.66C731.943 32.6467 731.98 32.46 731.12 32.1C729.9 31.59 729.28 31.21 728.7 29.96C725.587 23.1733 722.493 16.3533 719.42 9.49998C719.391 9.43616 719.344 9.38218 719.285 9.34466C719.226 9.30715 719.157 9.28774 719.087 9.2888C719.017 9.28986 718.948 9.31135 718.89 9.35064C718.832 9.38993 718.787 9.4453 718.76 9.50997C715.72 16.3966 712.523 23.29 709.17 30.19C708.857 30.83 708.157 31.4833 707.07 32.15C706.423 32.55 706.48 32.75 707.24 32.75H711.69C712.377 32.75 712.537 32.46 712.17 31.88L711.64 31.03C711.473 30.77 711.45 30.5 711.57 30.22L713.59 25.35C713.757 24.95 714.053 24.75 714.48 24.75H723.14C723.533 24.75 723.797 24.9333 723.93 25.3L725.86 30.79C725.967 31.0967 725.893 31.3567 725.64 31.57Z" stroke="white" stroke-width="2"/>
<path d="M568 32.51C570.133 32.7767 572.27 32.85 574.41 32.73C574.783 32.71 574.823 32.5867 574.53 32.36L573.2 31.37C572.9 31.1433 572.75 30.84 572.75 30.46V11.53C572.75 11.0833 572.947 10.7467 573.34 10.52L574.77 9.71001C575.01 9.57001 574.99 9.5 574.71 9.5H568.23C567.483 9.5 567.467 9.61667 568.18 9.85001C569.71 10.36 570.23 11.22 570.24 12.89C570.267 18.3433 570.313 23.7967 570.38 29.25C570.4 31.0233 569.61 31.9933 568.01 32.16C567.97 32.1683 567.935 32.1897 567.909 32.2207C567.883 32.2517 567.868 32.2906 567.867 32.3311C567.866 32.3715 567.878 32.4112 567.902 32.4436C567.927 32.4761 567.961 32.4995 568 32.51Z" stroke="white" stroke-width="2"/>
<path d="M502.74 58.88C502.738 58.859 502.743 58.8379 502.755 58.8203C502.766 58.8027 502.784 58.7898 502.804 58.7838C502.824 58.7779 502.846 58.7792 502.865 58.7877C502.885 58.7961 502.901 58.8111 502.91 58.83L546.12 121.82C546.313 122.1 546.583 122.243 546.93 122.25L553.21 122.26C553.57 122.26 553.75 122.08 553.75 121.72V50.25C553.75 49.9167 553.583 49.75 553.25 49.75H547.13C546.71 49.75 546.5 49.96 546.5 50.38V109.19C546.5 109.77 546.337 109.82 546.01 109.34L505.61 50.19C505.41 49.8967 505.133 49.75 504.78 49.75H496C495.667 49.75 495.5 49.9167 495.5 50.25V122C495.5 122.333 495.667 122.5 496 122.5H502.13C502.55 122.5 502.76 122.29 502.76 121.87L502.74 58.88Z" stroke="white" stroke-width="2"/>
<path d="M333.68 69.17C333.681 69.1264 333.694 69.0838 333.718 69.0474C333.742 69.011 333.776 68.9822 333.816 68.9644C333.856 68.9466 333.9 68.9404 333.943 68.9468C333.986 68.9531 334.027 68.9715 334.06 69L391.61 123.38C392.757 124.46 393.243 124.217 393.07 122.65C392.663 119.07 392.447 115.02 392.42 110.5C392.313 94.7467 392.257 78.9967 392.25 63.25C392.25 57.32 395.29 56.83 400.13 55.75C400.397 55.69 400.477 55.5367 400.37 55.29C400.17 54.84 379.35 54.7 379.12 55.54C379.007 55.9667 379.167 56.1667 379.6 56.14C384.78 55.81 387.25 58.61 387.25 63.69C387.25 78.45 387.25 93.1834 387.25 107.89C387.249 107.924 387.239 107.958 387.219 107.986C387.2 108.015 387.173 108.037 387.142 108.051C387.11 108.065 387.075 108.069 387.041 108.064C387.007 108.058 386.976 108.043 386.95 108.02L328.5 53.21C328.429 53.1414 328.338 53.0965 328.241 53.0813C328.143 53.0661 328.043 53.0815 327.954 53.1253C327.866 53.169 327.793 53.2391 327.745 53.3258C327.698 53.4126 327.679 53.5118 327.69 53.61C329.46 73.63 328.51 94.4 328.49 114.53C328.49 117.66 327.7 119.71 324.78 120.79C323.68 121.19 321.73 121.01 320.51 121.67C319.63 122.143 319.69 122.377 320.69 122.37L341.51 122.21C341.643 122.21 341.723 122.143 341.75 122.01C341.77 121.903 341.767 121.803 341.74 121.71C341.693 121.51 341.567 121.41 341.36 121.41C335.967 121.437 333.327 118.463 333.44 112.49C333.72 97.9967 333.8 83.5567 333.68 69.17Z" stroke="white" stroke-width="2"/>
<path d="M611.99 99.97C614.103 104.463 616.017 109.05 617.73 113.73C619.2 117.77 618.45 121.23 613.52 121.34C613.427 121.34 613.367 121.387 613.34 121.48C613.3 121.6 613.263 121.72 613.23 121.84C613.15 122.113 613.253 122.25 613.54 122.25H636C636.076 122.25 636.149 122.223 636.206 122.174C636.263 122.124 636.299 122.055 636.309 121.98C636.319 121.905 636.301 121.829 636.259 121.767C636.217 121.704 636.153 121.659 636.08 121.64C628.17 119.77 627.01 115.61 623.87 108.59C615.717 90.37 607.433 72.03 599.02 53.57C598.986 53.4954 598.931 53.4326 598.862 53.3895C598.792 53.3465 598.712 53.3252 598.63 53.3284C598.548 53.3317 598.469 53.3592 598.403 53.4076C598.337 53.456 598.288 53.523 598.26 53.6C590.78 73.24 580.71 92.5 571.78 111.55C569.31 116.82 567.34 121.02 561.06 121.31C560.713 121.323 560.533 121.47 560.52 121.75C560.493 122.083 560.65 122.25 560.99 122.25H581.48C583.827 122.25 583.86 121.963 581.58 121.39C580.767 121.183 579.937 120.973 579.09 120.76C578.79 120.687 578.527 120.543 578.3 120.33C574.53 116.79 580.45 106.12 583.38 99.91C583.513 99.6367 583.73 99.5 584.03 99.5H611.25C611.597 99.5 611.843 99.6567 611.99 99.97Z" stroke="white" stroke-width="2"/>
<path d="M212.75 88.7867C212.766 79.3821 208.753 70.3558 201.593 63.6932C194.434 57.0307 184.714 53.2778 174.572 53.2601C164.43 53.2424 154.697 56.9614 147.514 63.5989C140.331 70.2364 136.286 79.2487 136.27 88.6533C136.254 98.0578 140.267 107.084 147.427 113.747C154.586 120.409 164.306 124.162 174.448 124.18C184.59 124.198 194.323 120.479 201.506 113.841C208.689 107.204 212.733 98.1912 212.75 88.7867Z" stroke="white" stroke-width="2"/>
<path d="M418.19 82.31C423.397 86.4966 430.48 91.9966 439.44 98.81C446.81 104.41 445.17 115.84 436.41 119.15C425.17 123.41 412.98 118.92 413.12 105.24C413.121 105.17 413.107 105.1 413.078 105.037C413.049 104.973 413.006 104.916 412.952 104.871C412.898 104.826 412.835 104.794 412.767 104.776C412.7 104.759 412.629 104.757 412.56 104.77C410.5 105.18 410.59 116.01 410.76 117.9C410.787 118.233 410.92 118.52 411.16 118.76C415.3 122.92 425.89 124.16 431.36 123.87C447.71 123.01 458.12 104.09 443.38 92.65C436.807 87.55 430.193 82.5033 423.54 77.51C416.46 72.19 415.47 62.76 424.33 58.51C428.123 56.6966 432.353 56.36 437.02 57.5C442.56 58.85 443.73 61.48 444.91 66.68C444.933 66.7903 444.997 66.8879 445.089 66.9534C445.18 67.0189 445.293 67.0476 445.405 67.0338C445.517 67.0199 445.62 66.9646 445.693 66.8787C445.766 66.7928 445.804 66.6826 445.8 66.57L445.5 55.29C445.487 54.87 445.27 54.64 444.85 54.6C434.69 53.69 421.72 50.96 414.84 61.2C410.2 68.1 411.63 77.04 418.19 82.31Z" stroke="white" stroke-width="2"/>
<path d="M74.2299 115.75C74.1999 119.7 70.28 121.24 66.71 121.46C65.8633 121.52 65.8233 121.733 66.5899 122.1C67.1766 122.38 67.8399 122.51 68.5799 122.49C75.4399 122.27 82.3166 122.193 89.2099 122.26C89.5166 122.26 89.5966 122.123 89.4499 121.85C89.2433 121.443 88.9299 121.237 88.5099 121.23C83.8366 121.143 81.4999 118.903 81.4999 114.51C81.4933 96.0433 81.4933 77.59 81.4999 59.15C81.4999 58.87 81.6433 58.72 81.9299 58.7C92.2999 57.99 105.2 57.48 108.68 67.8C111.27 75.48 107.77 86.85 98.4999 87.98C94.4266 88.48 90.2866 88.64 86.0799 88.46C85.9566 88.4414 85.831 88.4726 85.7306 88.5467C85.6303 88.6208 85.5635 88.7317 85.5449 88.855C85.5264 88.9783 85.5576 89.104 85.6316 89.2043C85.7057 89.3046 85.8166 89.3714 85.9399 89.39C99.6799 92.99 103.12 110.81 114.3 118.27C119.54 121.763 125.603 123.007 132.49 122C133.05 121.92 133.063 121.79 132.53 121.61C127.53 119.93 124.85 119.61 121.31 115.69C116.397 110.263 110.947 103.627 104.96 95.78C104.46 95.12 103.07 93.89 100.79 92.09C100.497 91.8567 100.533 91.7033 100.9 91.63C111.107 89.5233 116.603 83.7466 117.39 74.3C118.52 60.51 106.32 55 94.7499 54.99C92.1099 54.98 66.4899 54.78 66.3499 55.37C66.2699 55.7033 66.3966 55.9033 66.7299 55.97C69.8799 56.6 74.0399 57.12 74.2899 61C74.5766 65.3067 74.6166 73.1366 74.4099 84.49C74.2399 93.59 74.3199 105.34 74.2299 115.75Z" stroke="white" stroke-width="2"/>
<path d="M224.55 55.93C230.13 55.99 232.51 58.9 232.51 64.38C232.504 80.9533 232.497 97.5267 232.49 114.1C232.49 120.52 229.46 119.99 224.58 121.62C223.714 121.913 223.737 122.087 224.65 122.14C234.58 122.75 245.22 122.34 254.43 122.5C259.49 122.587 264.557 122.537 269.63 122.35C269.997 122.337 270.244 122.157 270.37 121.81L276.13 106.81C276.79 105.083 276.594 104.983 275.54 106.51C271.58 112.25 269.21 117.7 261.73 118.53C255.937 119.17 248.79 119.273 240.29 118.84C239.95 118.82 239.777 118.64 239.77 118.3C239.724 100.147 239.72 81.9867 239.76 63.82C239.77 58.82 242 55.94 247.13 56.1C247.27 56.1067 247.38 56.0533 247.46 55.94L247.76 55.52C248.007 55.1867 247.924 55.02 247.51 55.02L225.06 54.99C224.88 54.99 224.714 55.04 224.56 55.14C224.387 55.26 224.294 55.3433 224.28 55.39C224.262 55.4525 224.255 55.5181 224.259 55.5818C224.263 55.6455 224.279 55.7056 224.305 55.7577C224.331 55.8097 224.367 55.8523 224.409 55.8821C224.452 55.912 224.5 55.9284 224.55 55.93Z" stroke="white" stroke-width="2"/>
<path d="M285.2 55.92C289.81 56.28 293.74 57.84 293.74 62.94C293.747 79.8267 293.753 96.7233 293.76 113.63C293.76 118.74 291.1 121.4 285.97 121.11C285.437 121.077 285.043 121.27 284.79 121.69C284.583 122.03 284.68 122.2 285.08 122.2C290.59 122.26 309.98 122.5 310.16 121.88C310.26 121.533 310.13 121.35 309.77 121.33C304.3 121.06 301.01 119.34 301.01 113.44C301.01 97.64 301.003 81.83 300.99 66.01C300.98 59.85 302.54 55.83 309.35 56.02C310.217 56.0467 310.227 55.7467 309.38 55.12C309.276 55.0422 309.146 55.0001 309.01 55C301.083 54.98 293.187 55.02 285.32 55.12C284.453 55.1333 284.337 55.37 284.97 55.83C285.035 55.8819 285.115 55.9133 285.2 55.92Z" stroke="white" stroke-width="2"/>
<path d="M643.43 56.16C651.28 56.42 650.93 61.04 651 67.6C651.173 82.8066 651.2 98.0233 651.08 113.25C651.04 118.9 648.08 121.57 642.41 121.23C642.31 121.223 642.211 121.247 642.126 121.299C642.04 121.351 641.973 121.428 641.933 121.521C641.893 121.613 641.881 121.716 641.901 121.816C641.92 121.916 641.968 122.008 642.04 122.08C642.57 122.61 664.61 122.25 667.28 122.24C667.427 122.24 667.5 122.167 667.5 122.02C667.5 121.913 667.507 121.793 667.52 121.66C667.567 121.313 667.417 121.157 667.07 121.19C661.34 121.68 658.22 118.71 658.23 113.06C658.25 96.3133 658.317 79.5666 658.43 62.82C658.47 56.86 662.81 56.8699 667.11 55.7999C667.39 55.7333 667.477 55.5666 667.37 55.2999C667.18 54.7899 644.59 55.01 642.15 55.01C642.073 55.0119 641.999 55.0381 641.939 55.0849C641.878 55.1317 641.834 55.1966 641.813 55.2703C641.792 55.3439 641.795 55.4223 641.821 55.4942C641.847 55.5661 641.896 55.6277 641.96 55.67C642.433 55.9766 642.923 56.14 643.43 56.16Z" stroke="white" stroke-width="2"/>
<path d="M695.28 118.44C695.213 99.88 695.203 81.3167 695.25 62.75C695.26 57.7 698.62 56.6 702.89 56.01C703.217 55.9634 703.343 55.78 703.27 55.46C703.203 55.1733 703.007 55.0267 702.68 55.02C695.42 54.98 680 54.78 679.84 55.36C679.76 55.6867 679.883 55.8867 680.21 55.96C683.89 56.76 688.01 57.33 688.01 62.01C687.99 78.9767 687.99 95.9567 688.01 112.95C688.02 118.28 686.11 121.54 680.47 121.26C680.31 121.253 680.197 121.32 680.13 121.46L679.92 121.9C679.727 122.3 679.853 122.5 680.3 122.5H725.1C725.473 122.5 725.727 122.327 725.86 121.98L731.67 106.83C731.877 106.29 731.727 106.157 731.22 106.43C731.12 106.49 730.26 107.35 730.22 107.46C724.04 121.75 710.12 119.27 695.8 118.97C695.453 118.963 695.28 118.787 695.28 118.44Z" stroke="white" stroke-width="2"/>
<path d="M432.32 23.28C432.301 23.3281 432.293 23.3801 432.298 23.4317C432.304 23.4833 432.321 23.5329 432.35 23.5762C432.378 23.6195 432.417 23.6552 432.462 23.6802C432.508 23.7053 432.558 23.7189 432.61 23.72L440.42 23.78C440.473 23.7806 440.525 23.7681 440.572 23.7437C440.618 23.7193 440.658 23.6838 440.688 23.6403C440.718 23.5968 440.736 23.5466 440.742 23.4942C440.747 23.4418 440.74 23.3888 440.72 23.34L436.88 13.93C436.856 13.8719 436.815 13.8223 436.762 13.7875C436.71 13.7526 436.648 13.734 436.585 13.734C436.522 13.734 436.461 13.7526 436.408 13.7875C436.356 13.8223 436.315 13.8719 436.29 13.93L432.32 23.28Z" stroke="white" stroke-width="2"/>
<path d="M631.94 32.03C634.65 32.03 637.25 30.8784 639.166 28.8287C641.083 26.7789 642.16 23.9988 642.16 21.1C642.16 18.2012 641.083 15.4211 639.166 13.3713C637.25 11.3216 634.65 10.17 631.94 10.17C629.229 10.17 626.63 11.3216 624.713 13.3713C622.797 15.4211 621.72 18.2012 621.72 21.1C621.72 23.9988 622.797 26.7789 624.713 28.8287C626.63 30.8784 629.229 32.03 631.94 32.03Z" stroke="white" stroke-width="2"/>
<path d="M214.59 11.54C214.3 17.38 214.39 26.21 210.74 30.97C210.473 31.3233 210.56 31.5 211 31.5L220.47 31.49C220.605 31.49 220.739 31.4634 220.864 31.4116C220.989 31.3598 221.103 31.284 221.198 31.1883C221.294 31.0927 221.37 30.9791 221.421 30.8542C221.473 30.7292 221.5 30.5953 221.5 30.46V11.36C221.5 10.9267 221.286 10.7133 220.86 10.72L215.34 10.82C214.866 10.8267 214.616 11.0667 214.59 11.54Z" stroke="white" stroke-width="2"/>
<path d="M714.52 23.24C714.497 23.2932 714.487 23.3514 714.492 23.4092C714.497 23.4671 714.516 23.5228 714.548 23.5714C714.579 23.62 714.623 23.66 714.674 23.6877C714.725 23.7154 714.782 23.7299 714.84 23.7301L722.65 23.78C722.708 23.7809 722.764 23.7675 722.816 23.741C722.867 23.7145 722.911 23.6759 722.943 23.6284C722.976 23.5809 722.996 23.5261 723.003 23.4688C723.009 23.4115 723.001 23.3535 722.98 23.3L719.14 13.93C719.115 13.8647 719.071 13.8082 719.014 13.7681C718.956 13.728 718.888 13.706 718.818 13.7049C718.748 13.7038 718.68 13.7237 718.621 13.7621C718.563 13.8004 718.517 13.8555 718.49 13.9201L714.52 23.24Z" stroke="white" stroke-width="2"/>
<path d="M585.2 95.61C585.174 95.6739 585.164 95.7433 585.171 95.8121C585.178 95.8809 585.201 95.947 585.24 96.0043C585.278 96.0617 585.331 96.1087 585.392 96.1411C585.453 96.1734 585.521 96.1902 585.59 96.19L609.95 96.32C610.019 96.3203 610.087 96.3034 610.148 96.2711C610.21 96.2387 610.262 96.1917 610.3 96.1343C610.339 96.077 610.363 96.0109 610.37 95.9421C610.377 95.8733 610.366 95.8039 610.34 95.74L598.31 66.51C598.279 66.432 598.225 66.3652 598.156 66.3181C598.086 66.271 598.004 66.2458 597.92 66.2458C597.836 66.2458 597.754 66.271 597.685 66.3181C597.615 66.3652 597.561 66.432 597.53 66.51L585.2 95.61Z" stroke="white" stroke-width="2"/>
<path d="M174.668 120.77C178.588 120.749 182.465 119.9 186.078 118.27C189.691 116.641 192.969 114.263 195.726 111.272C198.482 108.281 200.662 104.737 202.142 100.84C203.621 96.9442 204.372 92.7725 204.35 88.5637C204.328 84.3549 203.534 80.1914 202.013 76.3108C200.493 72.4302 198.276 68.9086 195.488 65.947C192.701 62.9854 189.398 60.6419 185.768 59.0502C182.138 57.4586 178.252 56.6499 174.332 56.6704C170.412 56.6909 166.535 57.5402 162.922 59.1698C159.309 60.7995 156.031 63.1774 153.274 66.168C150.518 69.1586 148.338 72.7033 146.858 76.5996C145.379 80.4959 144.628 84.6675 144.65 88.8763C144.672 93.0851 145.466 97.2487 146.987 101.129C148.507 105.01 150.724 108.531 153.512 111.493C156.299 114.455 159.602 116.798 163.232 118.39C166.862 119.981 170.748 120.79 174.668 120.77Z" stroke="white" stroke-width="2"/>
<path d="M6.74001 64.09V122.16C6.74001 122.25 6.70417 122.337 6.64041 122.4C6.57665 122.464 6.49017 122.5 6.39999 122.5H1.34C1.24982 122.5 1.16334 122.464 1.09958 122.4C1.03582 122.337 1 122.25 1 122.16V1.59C1 1.49982 1.03582 1.41334 1.09958 1.34958C1.16334 1.28582 1.24982 1.25 1.34 1.25H55.66C55.7502 1.25 55.8367 1.28582 55.9004 1.34958C55.9642 1.41334 56 1.49982 56 1.59V5.91C56 6.00018 55.9642 6.08666 55.9004 6.15042C55.8367 6.21418 55.7502 6.25 55.66 6.25H7.09C6.99982 6.25 6.91334 6.28582 6.84958 6.34958C6.78582 6.41334 6.75 6.49982 6.75 6.59V58.41C6.75 58.5002 6.78582 58.5867 6.84958 58.6504C6.91334 58.7142 6.99982 58.75 7.09 58.75H53.91C54.0002 58.75 54.0867 58.7858 54.1504 58.8496C54.2142 58.9133 54.25 58.9998 54.25 59.09V63.41C54.25 63.5002 54.2142 63.5867 54.1504 63.6504C54.0867 63.7142 54.0002 63.75 53.91 63.75H7.08C6.98983 63.75 6.90335 63.7858 6.83958 63.8496C6.77582 63.9133 6.74001 63.9998 6.74001 64.09Z" fill="white"/>
<path d="M91.1402 10.19C93.8902 11.3 94.6802 12.92 94.2802 15.76C94.2402 16.0533 94.1602 16.0666 94.0402 15.8C92.7136 12.9133 90.6202 11.1266 87.7602 10.44C71.4702 6.52998 69.4202 33.45 86.4402 31.96C90.9469 31.5666 93.9169 28.9467 95.3502 24.1C95.4436 23.7733 95.5102 23.7766 95.5502 24.11C96.5502 32.27 85.8702 34.25 80.1902 32.59C64.4902 27.98 72.4002 2.65998 91.1402 10.19Z" fill="white"/>
<path d="M125.64 10.75H118.54C118.193 10.75 117.94 10.9067 117.78 11.22L117.31 12.1C116.937 12.8267 116.75 12.7833 116.75 11.97V9.53C116.75 9.25667 116.887 9.12999 117.16 9.14999C123.867 9.68999 130.577 9.71001 137.29 9.21001C137.703 9.18334 137.933 9.37333 137.98 9.78C138.067 10.6267 138.027 11.4733 137.86 12.32C137.693 13.1533 137.53 13.1533 137.37 12.32L137.2 11.44C137.12 10.98 136.847 10.75 136.38 10.75H129.05C128.717 10.75 128.547 10.9167 128.54 11.25C128.453 16.95 128.453 22.6167 128.54 28.25C128.573 30.1767 129.103 31.5467 130.13 32.36C130.457 32.62 130.413 32.75 130 32.75H124.8C124.113 32.75 124.057 32.56 124.63 32.18L125.7 31.46C126.013 31.2533 126.17 30.96 126.17 30.58L126.22 11.33C126.227 10.9433 126.033 10.75 125.64 10.75Z" fill="white"/>
<path d="M440.84 24.78L432.31 24.81C431.823 24.81 431.487 25.0366 431.3 25.49L429.27 30.3599C429.117 30.7266 429.18 31.0533 429.46 31.34L430.45 32.32C430.783 32.66 430.71 32.8233 430.23 32.81L424.77 32.62C424.063 32.5933 424.03 32.4366 424.67 32.15C428.03 30.65 434.73 13.62 436.62 9.46996C436.78 9.12329 436.937 9.12329 437.09 9.46996C439.07 13.74 445.6 30.86 449.05 32.37C449.45 32.5433 449.433 32.6366 449 32.65L442.97 32.7699C442.383 32.7766 442.297 32.5733 442.71 32.16L443.47 31.4C443.73 31.1466 443.793 30.8533 443.66 30.5199L441.56 25.2699C441.427 24.9433 441.187 24.78 440.84 24.78ZM432.32 23.28C432.301 23.328 432.293 23.3801 432.298 23.4317C432.303 23.4833 432.321 23.5328 432.35 23.5761C432.378 23.6194 432.417 23.6551 432.462 23.6802C432.507 23.7052 432.558 23.7189 432.61 23.72L440.42 23.78C440.473 23.7805 440.525 23.768 440.572 23.7437C440.618 23.7193 440.658 23.6838 440.688 23.6402C440.718 23.5967 440.736 23.5465 440.742 23.4941C440.747 23.4417 440.74 23.3888 440.72 23.34L436.88 13.93C436.856 13.8719 436.815 13.8223 436.762 13.7874C436.71 13.7526 436.648 13.734 436.585 13.734C436.522 13.734 436.46 13.7526 436.408 13.7874C436.356 13.8223 436.314 13.8719 436.29 13.93L432.32 23.28Z" fill="white"/>
<path d="M616.06 22.82L616.14 30.25C616.14 30.59 616.256 30.8867 616.49 31.14C616.996 31.6867 617.61 32.0167 618.33 32.13C620.996 32.5434 620.97 32.75 618.25 32.75H611.56C610.946 32.75 610.926 32.65 611.5 32.45C612.86 31.97 613.57 30.68 613.63 28.58C613.776 23.38 613.81 18.1933 613.73 13.02C613.71 11.13 613.09 10.17 611.28 9.80002C610.693 9.68002 610.7 9.60001 611.3 9.56001C613.7 9.40001 616.086 9.40335 618.46 9.57002C620.626 9.72335 620.646 9.85001 618.52 9.95001C615.06 10.11 615.93 16.9 616.03 19.1C616.05 19.5334 616.276 19.75 616.71 19.75H618.23C618.623 19.75 618.87 19.56 618.97 19.18C623.54 1.61001 649.76 9.17002 644.48 24.6C640.26 36.92 621.63 35.8 618.99 22.84C618.91 22.4467 618.67 22.25 618.27 22.25H616.62C616.24 22.25 616.053 22.44 616.06 22.82ZM631.94 32.03C634.65 32.03 637.25 30.8785 639.166 28.8287C641.083 26.7789 642.16 23.9988 642.16 21.1C642.16 18.2012 641.083 15.4211 639.166 13.3714C637.25 11.3216 634.65 10.17 631.94 10.17C629.229 10.17 626.63 11.3216 624.713 13.3714C622.797 15.4211 621.72 18.2012 621.72 21.1C621.72 23.9988 622.797 26.7789 624.713 28.8287C626.63 30.8785 629.229 32.03 631.94 32.03Z" fill="white"/>
<path d="M166.13 35.01C167.823 33.9233 169.007 32.4399 169.68 30.5599C169.773 30.2933 169.76 30.0366 169.64 29.79L161.14 11.6199C160.98 11.2733 160.737 11.0066 160.41 10.8199L158.89 9.92993C158.423 9.64993 158.46 9.50994 159 9.50994L164.11 9.46994C164.53 9.46328 164.613 9.62994 164.36 9.96994C162.74 12.0899 167.86 22.1999 170.58 28.3499C170.78 28.8033 170.973 28.7999 171.16 28.3399L177.74 12.3299C177.847 12.0699 177.88 11.7966 177.84 11.5099C177.773 10.9966 177.563 10.5933 177.21 10.2999C176.643 9.81328 176.733 9.55994 177.48 9.53994L183.02 9.39994C183.38 9.39327 183.423 9.50661 183.15 9.73995C182.31 10.4699 181.4 10.9399 180.91 12.0099C177.937 18.5433 174.933 25.0599 171.9 31.5599C170.94 33.6266 169.9 35.0133 168.78 35.7199C166.79 36.9899 162.35 38.2999 161.05 35.1299C160.88 34.7108 160.862 34.2456 160.999 33.8147C161.136 33.3838 161.419 33.0143 161.8 32.7699C163.33 31.7799 165.57 32.6699 165.53 34.6799C165.523 35.1666 165.723 35.2766 166.13 35.01Z" fill="white"/>
<path d="M224.77 31.42L226.37 31.54C226.77 31.5733 226.977 31.7933 226.99 32.2C227.043 34.48 227.017 36.7633 226.91 39.05C226.823 40.9967 226.573 41.02 226.16 39.12C225.27 35.02 222.95 32.77 218.55 32.75C213 32.73 207.73 32.11 206.5 39.09C206.427 39.51 206.207 39.6033 205.84 39.37C205.27 39.01 205.5 33.03 205.52 32.02C205.527 31.7267 205.673 31.5667 205.96 31.54L207.2 31.42C207.533 31.3867 207.803 31.2367 208.01 30.97C211.79 26.14 212.21 17.41 212.3 11.8C212.307 11.4333 212.163 11.1467 211.87 10.94L210.36 9.89999C209.98 9.63333 210.02 9.5 210.48 9.5H226.07C226.483 9.5 226.513 9.60333 226.16 9.81L224.61 10.73C224.203 10.9767 224 11.34 224 11.82V30.59C224 31.1033 224.257 31.38 224.77 31.42ZM214.59 11.54C214.3 17.38 214.39 26.21 210.74 30.97C210.473 31.3233 210.56 31.5 211 31.5L220.47 31.49C220.605 31.49 220.739 31.4634 220.864 31.4116C220.989 31.3598 221.103 31.284 221.198 31.1883C221.294 31.0927 221.37 30.9791 221.422 30.8542C221.473 30.7292 221.5 30.5953 221.5 30.46V11.36C221.5 10.9267 221.287 10.7133 220.86 10.72L215.34 10.82C214.867 10.8267 214.617 11.0667 214.59 11.54Z" fill="white"/>
<path d="M273.22 15.26L257.04 30.29C256.594 30.71 256.637 31.07 257.17 31.37L259.01 32.4C259.43 32.6333 259.4 32.75 258.92 32.75H251.92C251.754 32.75 251.697 32.67 251.75 32.51C251.777 32.4167 251.807 32.3233 251.84 32.23C251.88 32.11 251.96 32.05 252.08 32.05C253.467 31.9967 254.177 31.2933 254.21 29.94C254.284 26.7533 254.29 20.8533 254.23 12.24C254.224 11 253.46 10.2133 251.94 9.88001C251.007 9.66667 251.027 9.55333 252 9.54L259.29 9.42C259.57 9.41333 259.61 9.51001 259.41 9.71001L259.18 9.94C259.1 10.02 259.004 10.0633 258.89 10.07C257.624 10.15 256.944 10.6833 256.85 11.67C256.537 14.8767 256.554 19.81 256.9 26.47C256.92 26.91 257.09 26.98 257.41 26.68L273.18 11.68C273.6 11.2867 273.567 10.9367 273.08 10.63L271.76 9.80001C271.487 9.62001 271.514 9.53 271.84 9.53L278.49 9.44C279.124 9.43334 279.15 9.55667 278.57 9.81L276.77 10.59C276.424 10.7433 276.25 11.01 276.25 11.39V30.31C276.25 30.6967 276.387 31.0267 276.66 31.3C277.12 31.7533 277.677 32.03 278.33 32.13C281.09 32.5433 281.064 32.75 278.25 32.75H271.75C270.564 32.75 270.54 32.59 271.68 32.27C272.987 31.91 273.67 31.1567 273.73 30.01C273.83 27.85 273.82 23.0033 273.7 15.47C273.694 15.0433 273.534 14.9733 273.22 15.26Z" fill="white"/>
<path d="M310.23 22.0601C307.42 21.1201 305.41 19.2501 305.19 16.1801C304.59 7.91005 317.01 9.28006 321.99 9.51006C322.364 9.53006 322.384 9.62339 322.05 9.79005L320.6 10.5601C320.2 10.7667 320 11.0967 320 11.5501V30.6601C320 31.1067 320.19 31.4401 320.57 31.6601L321.78 32.3701C322.214 32.6234 322.177 32.7501 321.67 32.7501H315.75C314.93 32.7501 314.9 32.5967 315.66 32.2901C316.874 31.8034 317.484 31.0401 317.49 30.0001C317.51 23.8134 317.51 17.6301 317.49 11.4501C317.49 11.0834 317.307 10.8767 316.94 10.8301C315.314 10.6101 313.724 10.6467 312.17 10.9401C307.37 11.8501 306.57 16.9501 309.89 20.1401C310.13 20.3667 310.417 20.5067 310.75 20.5601L315.33 21.3C316.404 21.4667 316.41 21.6767 315.35 21.9301L314 22.2601C313.64 22.3467 313.35 22.5334 313.13 22.8201C309.85 27.0101 307.24 33.0101 300.78 32.5701C300.487 32.5501 300.474 32.48 300.74 32.36C304.86 30.51 307.27 25.8801 310.39 22.7301C310.697 22.4234 310.644 22.2001 310.23 22.0601Z" fill="white"/>
<path d="M396.14 15.68L387.65 32.74C387.523 33 387.393 33 387.26 32.74L378.79 16.13C378.457 15.4833 378.25 15.52 378.17 16.24L376.49 30.8C376.443 31.1733 376.577 31.4666 376.89 31.68L377.52 32.11C378.14 32.5366 378.077 32.75 377.33 32.75H372.5C371.273 32.75 371.23 32.5833 372.37 32.25C373.63 31.8767 374.32 31.2733 374.44 30.44C375.46 23.4133 376.473 16.4867 377.48 9.65999C377.488 9.57523 377.524 9.49552 377.582 9.43305C377.64 9.37058 377.717 9.32878 377.801 9.31405C377.885 9.29931 377.971 9.31245 378.047 9.35144C378.122 9.39044 378.183 9.45314 378.22 9.52999L387.76 27.85C387.98 28.2767 388.2 28.2767 388.42 27.85L397.85 9.35C397.881 9.29252 397.929 9.24617 397.987 9.21755C398.046 9.18893 398.112 9.17947 398.176 9.19054C398.24 9.20161 398.299 9.23265 398.345 9.27922C398.391 9.3258 398.42 9.38554 398.43 9.44999C399.457 16.41 400.47 23.3467 401.47 30.26C401.61 31.2 402.323 31.86 403.61 32.24C404.743 32.58 404.707 32.75 403.5 32.75H398.02C397.653 32.75 397.58 32.6033 397.8 32.31C399.32 30.32 397.09 18.72 396.72 15.78C396.633 15.1 396.44 15.0666 396.14 15.68Z" fill="white"/>
<path d="M489.43 10.6001L487.92 9.83007C487.493 9.61673 487.52 9.50673 488 9.50006L494.09 9.49007C494.397 9.49007 494.433 9.5934 494.2 9.80007L492.96 10.8901C492.66 11.1501 492.51 11.4767 492.51 11.8701C492.483 17.7301 492.487 23.5834 492.52 29.4301C492.52 30.9501 492.95 31.7401 494.31 32.2901C495.07 32.5967 495.05 32.7501 494.25 32.7501H488.3C487.647 32.7501 487.597 32.5767 488.15 32.2301L489.51 31.3901C489.837 31.1834 490 30.8901 490 30.5101V22.5001C490 22.0001 489.75 21.7501 489.25 21.7501H476.49C476.07 21.7501 475.85 21.9601 475.83 22.3801C475.66 25.4401 474.93 31.1501 477.36 32.2101C478.18 32.5701 478.143 32.7501 477.25 32.7501H471.99C470.97 32.7501 470.917 32.5267 471.83 32.0801L472.71 31.6501C473.063 31.4701 473.24 31.1834 473.24 30.7901C473.267 24.7234 473.263 18.6667 473.23 12.6201C473.22 11.0101 472.64 10.1501 471.15 9.74007C470.563 9.58007 470.573 9.49339 471.18 9.48006L477.51 9.36006C478.343 9.34673 478.387 9.52672 477.64 9.90006C474.7 11.3801 475.73 17.4301 475.76 20.2601C475.76 20.39 475.812 20.5146 475.903 20.6065C475.995 20.6984 476.12 20.7501 476.25 20.7501H489.39C489.817 20.7501 490.027 20.5367 490.02 20.11L489.95 11.4501C489.95 11.0567 489.777 10.7734 489.43 10.6001Z" fill="white"/>
<path d="M523.43 26.66L539.37 11.59C539.451 11.5162 539.511 11.4233 539.547 11.3198C539.582 11.2162 539.59 11.1055 539.571 10.9979C539.553 10.8902 539.507 10.789 539.438 10.7038C539.37 10.6185 539.281 10.5518 539.18 10.51L537.64 9.87C537.113 9.65 537.137 9.53667 537.71 9.53L544.22 9.44001C544.593 9.43334 544.627 9.53667 544.32 9.75L542.72 10.85C542.413 11.0567 542.26 11.3467 542.26 11.72C542.24 17.6133 542.24 23.4933 542.26 29.36C542.27 31 542.83 31.77 544.31 32.26C545.283 32.5867 545.263 32.75 544.25 32.75H538C536.8 32.75 536.75 32.57 537.85 32.21C539.003 31.83 539.613 31.2433 539.68 30.45C539.96 27.4033 539.937 22.51 539.61 15.77C539.59 15.3233 539.413 15.25 539.08 15.55L523.05 30.31C522.603 30.7233 522.653 31.0667 523.2 31.34L525.26 32.36C525.653 32.5533 525.63 32.6533 525.19 32.66L518.32 32.78C517.58 32.7867 517.54 32.6267 518.2 32.3L519.85 31.49C520.117 31.3567 520.25 31.1433 520.25 30.85V11.76C520.25 11.3467 520.08 11.0267 519.74 10.8L518.29 9.82001C518.05 9.66001 518.073 9.57001 518.36 9.55001C520.573 9.44334 522.78 9.40333 524.98 9.43C525.487 9.43 525.507 9.53 525.04 9.73C522.44 10.86 522.89 12.64 522.81 15.06C522.69 18.8733 522.743 22.68 522.97 26.48C522.99 26.8733 523.143 26.9333 523.43 26.66Z" fill="white"/>
<path d="M588.99 32.68C583.23 33.07 577.93 25.75 574.48 21.39C574.293 21.15 574.3 20.9167 574.5 20.69L582.38 11.44C582.593 11.1867 582.617 10.9167 582.45 10.63L582.31 10.4C581.983 9.84665 582.14 9.55999 582.78 9.53999L588.26 9.39999C588.953 9.37999 588.97 9.47332 588.31 9.67998C584.46 10.9 579.86 16.85 577.08 19.88C576.983 19.9867 576.929 20.1258 576.929 20.27C576.929 20.4142 576.983 20.5533 577.08 20.66C580.19 24.13 584.91 30.54 589.04 32.42C589.36 32.5667 589.343 32.6533 588.99 32.68Z" fill="white"/>
<path d="M673.84 31.59L675.06 32.2001C675.547 32.4467 675.517 32.6 674.97 32.66C672.99 32.88 671.003 32.8834 669.01 32.6701C668.463 32.6101 668.443 32.4767 668.95 32.27C670.137 31.79 670.733 31.0334 670.74 30C670.76 24.2467 670.757 18.4967 670.73 12.75C670.723 11.27 670.153 10.2967 669.02 9.83005C668.813 9.74338 668.82 9.68672 669.04 9.66005C673.31 9.13005 681.88 8.70004 684.67 12.76C688.9 18.92 681.75 24.63 675.66 22.49C674.473 22.07 674.507 21.8901 675.76 21.9501C685.3 22.3901 686.42 9.01004 673.7 10.84C673.4 10.8867 673.25 11.06 673.25 11.36V30.62C673.25 31.0667 673.447 31.39 673.84 31.59Z" fill="white"/>
<path d="M725.86 30.7901L723.93 25.3C723.797 24.9334 723.533 24.75 723.14 24.75H714.48C714.053 24.75 713.757 24.95 713.59 25.35L711.57 30.22C711.45 30.5 711.473 30.77 711.64 31.03L712.17 31.88C712.537 32.46 712.377 32.75 711.69 32.75H707.24C706.48 32.75 706.423 32.55 707.07 32.15C708.157 31.4834 708.857 30.83 709.17 30.19C712.523 23.29 715.72 16.3967 718.76 9.51004C718.787 9.44537 718.832 9.38999 718.89 9.3507C718.948 9.31141 719.017 9.28992 719.087 9.28886C719.157 9.2878 719.226 9.30721 719.285 9.34472C719.344 9.38224 719.391 9.43622 719.42 9.50004C722.493 16.3534 725.587 23.1734 728.7 29.96C729.28 31.21 729.9 31.59 731.12 32.1C731.98 32.46 731.943 32.6467 731.01 32.66L724.97 32.75C724.443 32.7567 724.383 32.5934 724.79 32.2601L725.64 31.57C725.893 31.3567 725.967 31.0967 725.86 30.7901ZM714.52 23.24C714.497 23.2932 714.487 23.3514 714.492 23.4092C714.497 23.4671 714.516 23.5228 714.548 23.5714C714.579 23.62 714.623 23.66 714.674 23.6877C714.725 23.7154 714.782 23.7299 714.84 23.7301L722.65 23.78C722.708 23.7809 722.764 23.7675 722.816 23.741C722.867 23.7145 722.911 23.6759 722.943 23.6284C722.976 23.5809 722.997 23.5261 723.003 23.4688C723.009 23.4115 723.001 23.3535 722.98 23.3L719.14 13.93C719.115 13.8647 719.071 13.8082 719.014 13.7681C718.956 13.728 718.888 13.706 718.818 13.7049C718.748 13.7038 718.68 13.7237 718.621 13.7621C718.563 13.8004 718.517 13.8555 718.49 13.9201L714.52 23.24Z" fill="white"/>
<path d="M568 32.51C567.961 32.4995 567.927 32.4761 567.902 32.4436C567.878 32.4112 567.866 32.3715 567.867 32.3311C567.868 32.2906 567.883 32.2517 567.909 32.2207C567.935 32.1897 567.97 32.1683 568.01 32.16C569.61 31.9933 570.4 31.0233 570.38 29.25C570.313 23.7967 570.267 18.3433 570.24 12.89C570.23 11.22 569.71 10.36 568.18 9.85001C567.467 9.61667 567.483 9.5 568.23 9.5H574.71C574.99 9.5 575.01 9.57001 574.77 9.71001L573.34 10.52C572.947 10.7467 572.75 11.0833 572.75 11.53V30.46C572.75 30.84 572.9 31.1433 573.2 31.37L574.53 32.36C574.823 32.5867 574.783 32.71 574.41 32.73C572.27 32.85 570.133 32.7767 568 32.51Z" fill="white"/>
<path d="M502.74 58.88L502.76 121.87C502.76 122.29 502.55 122.5 502.13 122.5H496C495.667 122.5 495.5 122.333 495.5 122V50.25C495.5 49.9167 495.667 49.75 496 49.75H504.78C505.133 49.75 505.41 49.8967 505.61 50.19L546.01 109.34C546.337 109.82 546.5 109.77 546.5 109.19V50.38C546.5 49.96 546.71 49.75 547.13 49.75H553.25C553.583 49.75 553.75 49.9167 553.75 50.25V121.72C553.75 122.08 553.57 122.26 553.21 122.26L546.93 122.25C546.583 122.243 546.313 122.1 546.12 121.82L502.91 58.83C502.901 58.8111 502.885 58.7961 502.865 58.7877C502.846 58.7792 502.824 58.7779 502.804 58.7838C502.784 58.7898 502.766 58.8027 502.755 58.8203C502.743 58.8379 502.738 58.859 502.74 58.88Z" fill="white"/>
<path d="M333.68 69.1701C333.8 83.5568 333.72 97.9967 333.44 112.49C333.327 118.463 335.967 121.437 341.36 121.41C341.567 121.41 341.693 121.51 341.74 121.71C341.767 121.803 341.77 121.903 341.75 122.01C341.723 122.143 341.643 122.21 341.51 122.21L320.69 122.37C319.69 122.377 319.63 122.143 320.51 121.67C321.73 121.01 323.68 121.19 324.78 120.79C327.7 119.71 328.49 117.66 328.49 114.53C328.51 94.4001 329.46 73.6301 327.69 53.6101C327.679 53.5119 327.698 53.4126 327.745 53.3259C327.793 53.2391 327.866 53.1691 327.954 53.1253C328.043 53.0816 328.143 53.0662 328.241 53.0814C328.338 53.0965 328.429 53.1415 328.5 53.2101L386.95 108.02C386.976 108.043 387.007 108.058 387.041 108.064C387.075 108.069 387.11 108.065 387.142 108.051C387.173 108.037 387.2 108.015 387.219 107.986C387.239 107.958 387.249 107.924 387.25 107.89C387.25 93.1834 387.25 78.4501 387.25 63.6901C387.25 58.6101 384.78 55.8101 379.6 56.1401C379.167 56.1668 379.007 55.9667 379.12 55.5401C379.35 54.7001 400.17 54.8401 400.37 55.2901C400.477 55.5367 400.397 55.6901 400.13 55.7501C395.29 56.8301 392.25 57.3201 392.25 63.2501C392.257 78.9967 392.313 94.7467 392.42 110.5C392.447 115.02 392.663 119.07 393.07 122.65C393.243 124.217 392.757 124.46 391.61 123.38L334.06 69.0001C334.027 68.9716 333.986 68.9531 333.943 68.9468C333.9 68.9405 333.856 68.9466 333.816 68.9645C333.776 68.9823 333.742 69.0111 333.718 69.0475C333.694 69.0839 333.681 69.1264 333.68 69.1701Z" fill="white"/>
<path d="M611.25 99.5H584.03C583.73 99.5 583.513 99.6367 583.38 99.91C580.45 106.12 574.53 116.79 578.3 120.33C578.527 120.543 578.79 120.687 579.09 120.76C579.937 120.973 580.767 121.183 581.58 121.39C583.86 121.963 583.827 122.25 581.48 122.25H560.99C560.65 122.25 560.493 122.083 560.52 121.75C560.533 121.47 560.713 121.323 561.06 121.31C567.34 121.02 569.31 116.82 571.78 111.55C580.71 92.5 590.78 73.24 598.26 53.6C598.288 53.523 598.337 53.456 598.403 53.4076C598.469 53.3592 598.548 53.3317 598.63 53.3284C598.712 53.3252 598.792 53.3465 598.862 53.3895C598.931 53.4326 598.986 53.4954 599.02 53.57C607.433 72.03 615.717 90.37 623.87 108.59C627.01 115.61 628.17 119.77 636.08 121.64C636.153 121.659 636.217 121.704 636.259 121.767C636.301 121.829 636.319 121.905 636.309 121.98C636.299 122.055 636.263 122.124 636.206 122.174C636.149 122.223 636.076 122.25 636 122.25H613.54C613.253 122.25 613.15 122.113 613.23 121.84C613.263 121.72 613.3 121.6 613.34 121.48C613.367 121.387 613.427 121.34 613.52 121.34C618.45 121.23 619.2 117.77 617.73 113.73C616.017 109.05 614.103 104.463 611.99 99.97C611.843 99.6567 611.597 99.5 611.25 99.5ZM585.2 95.61C585.174 95.6739 585.164 95.7434 585.17 95.8122C585.177 95.881 585.201 95.947 585.24 96.0044C585.278 96.0618 585.33 96.1087 585.392 96.1411C585.453 96.1735 585.521 96.1903 585.59 96.19L609.95 96.32C610.019 96.3203 610.087 96.3035 610.148 96.2711C610.209 96.2387 610.262 96.1918 610.3 96.1344C610.339 96.077 610.363 96.011 610.37 95.9422C610.376 95.8734 610.366 95.8039 610.34 95.74L598.31 66.51C598.279 66.4321 598.225 66.3652 598.155 66.3181C598.086 66.2711 598.004 66.2459 597.92 66.2459C597.836 66.2459 597.754 66.2711 597.684 66.3181C597.615 66.3652 597.561 66.4321 597.53 66.51L585.2 95.61Z" fill="white"/>
<path d="M212.75 88.7867C212.733 98.1912 208.689 107.204 201.506 113.841C194.323 120.479 184.59 124.198 174.448 124.18C164.306 124.162 154.586 120.409 147.427 113.747C140.267 107.084 136.254 98.0578 136.27 88.6533C136.286 79.2487 140.331 70.2364 147.514 63.5989C154.697 56.9614 164.43 53.2424 174.572 53.2601C184.714 53.2778 194.434 57.0307 201.593 63.6932C208.753 70.3558 212.766 79.3821 212.75 88.7867ZM174.668 120.77C178.588 120.749 182.465 119.9 186.078 118.27C189.691 116.641 192.969 114.263 195.725 111.272C198.482 108.281 200.662 104.737 202.142 100.84C203.621 96.9441 204.372 92.7725 204.35 88.5637C204.328 84.3548 203.534 80.1913 202.013 76.3107C200.493 72.4302 198.276 68.9085 195.488 65.947C192.701 62.9854 189.398 60.6419 185.768 59.0502C182.138 57.4585 178.252 56.6499 174.332 56.6704C170.412 56.6909 166.535 57.5402 162.922 59.1698C159.309 60.7994 156.031 63.1774 153.274 66.168C150.518 69.1586 148.338 72.7032 146.858 76.5995C145.379 80.4958 144.628 84.6675 144.65 88.8763C144.672 93.0851 145.466 97.2486 146.987 101.129C148.507 105.01 150.724 108.531 153.512 111.493C156.299 114.455 159.602 116.798 163.232 118.39C166.862 119.981 170.748 120.79 174.668 120.77Z" fill="white"/>
<path d="M418.19 82.31C411.63 77.04 410.2 68.1 414.84 61.2C421.72 50.96 434.69 53.69 444.85 54.6C445.27 54.64 445.487 54.87 445.5 55.29L445.8 66.57C445.804 66.6826 445.766 66.7928 445.693 66.8787C445.62 66.9646 445.517 67.0199 445.405 67.0338C445.293 67.0476 445.18 67.0189 445.089 66.9534C444.997 66.8879 444.933 66.7903 444.91 66.68C443.73 61.48 442.56 58.85 437.02 57.5C432.353 56.36 428.123 56.6966 424.33 58.51C415.47 62.76 416.46 72.19 423.54 77.51C430.193 82.5033 436.807 87.55 443.38 92.65C458.12 104.09 447.71 123.01 431.36 123.87C425.89 124.16 415.3 122.92 411.16 118.76C410.92 118.52 410.787 118.233 410.76 117.9C410.59 116.01 410.5 105.18 412.56 104.77C412.629 104.757 412.7 104.759 412.767 104.776C412.835 104.794 412.898 104.826 412.952 104.871C413.006 104.916 413.049 104.973 413.078 105.037C413.107 105.1 413.121 105.17 413.12 105.24C412.98 118.92 425.17 123.41 436.41 119.15C445.17 115.84 446.81 104.41 439.44 98.81C430.48 91.9966 423.397 86.4966 418.19 82.31Z" fill="white"/>
<path d="M66.71 121.46C70.28 121.24 74.1999 119.7 74.2299 115.75C74.3199 105.34 74.2399 93.59 74.4099 84.49C74.6166 73.1367 74.5766 65.3067 74.2899 61C74.0399 57.12 69.8799 56.6001 66.7299 55.9701C66.3966 55.9034 66.2699 55.7034 66.3499 55.37C66.4899 54.78 92.1099 54.98 94.7499 54.99C106.32 55 118.52 60.51 117.39 74.3C116.603 83.7467 111.107 89.5234 100.9 91.6301C100.533 91.7034 100.497 91.8567 100.79 92.09C103.07 93.89 104.46 95.12 104.96 95.78C110.947 103.627 116.397 110.263 121.31 115.69C124.85 119.61 127.53 119.93 132.53 121.61C133.063 121.79 133.05 121.92 132.49 122C125.603 123.007 119.54 121.763 114.3 118.27C103.12 110.81 99.6799 92.9901 85.9399 89.3901C85.8166 89.3715 85.7057 89.3047 85.6316 89.2044C85.5576 89.104 85.5264 88.9784 85.5449 88.8551C85.5635 88.7317 85.6303 88.6208 85.7306 88.5467C85.831 88.4727 85.9566 88.4415 86.0799 88.46C90.2866 88.64 94.4266 88.4801 98.4999 87.9801C107.77 86.8501 111.27 75.48 108.68 67.8C105.2 57.48 92.2999 57.9901 81.9299 58.7001C81.6433 58.7201 81.4999 58.87 81.4999 59.15C81.4933 77.59 81.4933 96.0434 81.4999 114.51C81.4999 118.903 83.8366 121.143 88.5099 121.23C88.9299 121.237 89.2433 121.443 89.4499 121.85C89.5966 122.123 89.5166 122.26 89.2099 122.26C82.3166 122.193 75.4399 122.27 68.5799 122.49C67.8399 122.51 67.1766 122.38 66.5899 122.1C65.8233 121.733 65.8633 121.52 66.71 121.46Z" fill="white"/>
<path d="M224.55 55.93C224.5 55.9284 224.452 55.912 224.409 55.8821C224.367 55.8523 224.331 55.8097 224.305 55.7577C224.279 55.7056 224.263 55.6455 224.259 55.5818C224.255 55.5181 224.262 55.4525 224.28 55.39C224.294 55.3433 224.387 55.26 224.56 55.14C224.714 55.04 224.88 54.99 225.06 54.99L247.51 55.02C247.924 55.02 248.007 55.1867 247.76 55.52L247.46 55.94C247.38 56.0533 247.27 56.1067 247.13 56.1C242 55.94 239.77 58.82 239.76 63.82C239.72 81.9867 239.724 100.147 239.77 118.3C239.777 118.64 239.95 118.82 240.29 118.84C248.79 119.273 255.937 119.17 261.73 118.53C269.21 117.7 271.58 112.25 275.54 106.51C276.594 104.983 276.79 105.083 276.13 106.81L270.37 121.81C270.244 122.157 269.997 122.337 269.63 122.35C264.557 122.537 259.49 122.587 254.43 122.5C245.22 122.34 234.58 122.75 224.65 122.14C223.737 122.087 223.714 121.913 224.58 121.62C229.46 119.99 232.49 120.52 232.49 114.1C232.497 97.5267 232.504 80.9533 232.51 64.38C232.51 58.9 230.13 55.99 224.55 55.93Z" fill="white"/>
<path d="M285.2 55.92C285.115 55.9133 285.035 55.8819 284.97 55.83C284.337 55.37 284.453 55.1333 285.32 55.12C293.187 55.02 301.083 54.98 309.01 55C309.146 55.0001 309.276 55.0422 309.38 55.12C310.227 55.7467 310.217 56.0467 309.35 56.02C302.54 55.83 300.98 59.85 300.99 66.01C301.003 81.83 301.01 97.64 301.01 113.44C301.01 119.34 304.3 121.06 309.77 121.33C310.13 121.35 310.26 121.533 310.16 121.88C309.98 122.5 290.59 122.26 285.08 122.2C284.68 122.2 284.583 122.03 284.79 121.69C285.043 121.27 285.437 121.077 285.97 121.11C291.1 121.4 293.76 118.74 293.76 113.63C293.753 96.7233 293.747 79.8267 293.74 62.94C293.74 57.84 289.81 56.28 285.2 55.92Z" fill="white"/>
<path d="M643.43 56.16C642.923 56.14 642.433 55.9766 641.96 55.67C641.896 55.6277 641.847 55.5661 641.821 55.4942C641.795 55.4223 641.792 55.3439 641.813 55.2703C641.834 55.1966 641.878 55.1317 641.939 55.0849C641.999 55.0381 642.073 55.0119 642.15 55.01C644.59 55.01 667.18 54.7899 667.37 55.2999C667.477 55.5666 667.39 55.7333 667.11 55.7999C662.81 56.8699 658.47 56.86 658.43 62.82C658.317 79.5666 658.25 96.3133 658.23 113.06C658.22 118.71 661.34 121.68 667.07 121.19C667.417 121.157 667.567 121.313 667.52 121.66C667.507 121.793 667.5 121.913 667.5 122.02C667.5 122.167 667.427 122.24 667.28 122.24C664.61 122.25 642.57 122.61 642.04 122.08C641.968 122.008 641.92 121.916 641.901 121.816C641.881 121.716 641.893 121.613 641.933 121.521C641.973 121.428 642.04 121.351 642.126 121.299C642.211 121.247 642.31 121.223 642.41 121.23C648.08 121.57 651.04 118.9 651.08 113.25C651.2 98.0233 651.173 82.8066 651 67.6C650.93 61.04 651.28 56.42 643.43 56.16Z" fill="white"/>
<path d="M695.8 118.97C710.12 119.27 724.04 121.75 730.22 107.46C730.26 107.35 731.12 106.49 731.22 106.43C731.727 106.157 731.877 106.29 731.67 106.83L725.86 121.98C725.727 122.327 725.473 122.5 725.1 122.5H680.3C679.853 122.5 679.727 122.3 679.92 121.9L680.13 121.46C680.197 121.32 680.31 121.253 680.47 121.26C686.11 121.54 688.02 118.28 688.01 112.95C687.99 95.9567 687.99 78.9767 688.01 62.01C688.01 57.33 683.89 56.76 680.21 55.96C679.883 55.8867 679.76 55.6867 679.84 55.36C680 54.78 695.42 54.98 702.68 55.02C703.007 55.0267 703.203 55.1733 703.27 55.46C703.343 55.78 703.217 55.9634 702.89 56.01C698.62 56.6 695.26 57.7 695.25 62.75C695.203 81.3167 695.213 99.88 695.28 118.44C695.28 118.787 695.453 118.963 695.8 118.97Z" fill="white"/>
</g>
<defs>
<clipPath id="clip0_100_88">
<rect width="733" height="126" fill="white"/>
</clipPath>
</defs>
</svg>
