<svg width="72" height="72" viewBox="0 0 72 72" fill="none" xmlns="http://www.w3.org/2000/svg">
<path d="M50.2683 21.7125C46.7122 18.1687 41.9707 16.2 36.9658 16.2C26.561 16.2 18.1317 24.6 18.1317 34.9687C18.1317 38.25 19.0537 41.5312 20.6341 44.2875L18 54L28.0098 51.375C30.7756 52.8187 33.8049 53.6062 36.9658 53.6062C47.3707 53.6062 55.8 45.2062 55.8 34.8375C55.6683 29.9812 53.8244 25.2562 50.2683 21.7125ZM46.0537 41.6625C45.6585 42.7125 43.8146 43.7625 42.8927 43.8937C42.1024 44.025 41.0488 44.025 39.9951 43.7625C39.3366 43.5 38.4146 43.2375 37.361 42.7125C32.6195 40.7437 29.5902 36.0187 29.3268 35.625C29.0634 35.3625 27.3512 33.1312 27.3512 30.7687C27.3512 28.4062 28.5366 27.3562 28.9317 26.8312C29.3268 26.3062 29.8537 26.3062 30.2488 26.3062C30.5122 26.3062 30.9073 26.3062 31.1707 26.3062C31.4341 26.3062 31.8293 26.175 32.2244 27.0937C32.6195 28.0125 33.5415 30.375 33.6732 30.5062C33.8049 30.7687 33.8049 31.0312 33.6732 31.2937C33.5415 31.5562 33.4097 31.8187 33.1463 32.0812C32.8829 32.3437 32.6195 32.7375 32.4878 32.8687C32.2244 33.1312 31.961 33.3937 32.2244 33.7875C32.4878 34.3125 33.4098 35.7562 34.8585 37.0687C36.7024 38.6437 38.1512 39.1687 38.678 39.4312C39.2049 39.6937 39.4683 39.5625 39.7317 39.3C39.9951 39.0375 40.9171 37.9875 41.1805 37.4625C41.4439 36.9375 41.839 37.0687 42.2341 37.2C42.6293 37.3312 45 38.5125 45.3951 38.775C45.9219 39.0375 46.1854 39.1687 46.3171 39.3C46.4488 39.6937 46.4488 40.6125 46.0537 41.6625Z" fill="white"/>
</svg>
