<svg width="57" height="55" viewBox="0 0 57 55" fill="none" xmlns="http://www.w3.org/2000/svg">
<g id="socials">
<rect id="Rectangle 1" width="56.5901" height="55" rx="27.5" fill="url(#paint0_radial_24_318)"/>
<g id="instagram">
<path d="M28.295 16.2349C32.0449 16.2349 32.5563 16.2349 34.0903 16.2349C35.454 16.2349 36.1358 16.5663 36.6471 16.7319C37.3289 17.0633 37.8403 17.2289 38.3517 17.7259C38.863 18.2229 39.2039 18.7199 39.3744 19.3825C39.5448 19.8795 39.7153 20.5422 39.8857 21.8675C39.8857 23.3584 39.8857 23.6898 39.8857 27.5C39.8857 31.3102 39.8857 31.6416 39.8857 33.1325C39.8857 34.4578 39.5448 35.1205 39.3744 35.6175C39.0335 36.2801 38.863 36.7771 38.3517 37.2741C37.8403 37.7711 37.3289 38.1024 36.6471 38.2681C36.1358 38.4337 35.454 38.5994 34.0903 38.7651C32.5563 38.7651 32.2154 38.7651 28.295 38.7651C24.3746 38.7651 24.0337 38.7651 22.4996 38.7651C21.136 38.7651 20.4542 38.4337 19.9428 38.2681C19.261 37.9368 18.7497 37.7711 18.2383 37.2741C17.727 36.7771 17.386 36.2801 17.2156 35.6175C17.0451 35.1205 16.8747 34.4578 16.7042 33.1325C16.7042 31.6416 16.7042 31.3102 16.7042 27.5C16.7042 23.6898 16.7042 23.3584 16.7042 21.8675C16.7042 20.5422 17.0451 19.8795 17.2156 19.3825C17.5565 18.7199 17.727 18.2229 18.2383 17.7259C18.7497 17.2289 19.261 16.8976 19.9428 16.7319C20.4542 16.5663 21.136 16.4006 22.4996 16.2349C24.0337 16.2349 24.545 16.2349 28.295 16.2349ZM28.295 13.75C24.3746 13.75 24.0337 13.75 22.4996 13.75C20.9655 13.75 19.9428 14.0813 19.0906 14.4127C18.2383 14.744 17.3861 15.241 16.5338 16.0693C15.6815 16.8976 15.3406 17.5602 14.8293 18.5542C14.4884 19.3825 14.3179 20.3765 14.1475 21.8675C14.1475 23.3584 14.1475 23.8554 14.1475 27.5C14.1475 31.3102 14.1475 31.6416 14.1475 33.1325C14.1475 34.6235 14.4884 35.6175 14.8293 36.4458C15.1702 37.2741 15.6815 38.1024 16.5338 38.9307C17.3861 39.759 18.0679 40.0904 19.0906 40.5874C19.9428 40.9187 20.9655 41.0843 22.4996 41.25C24.0337 41.25 24.545 41.25 28.295 41.25C32.0449 41.25 32.5563 41.25 34.0903 41.25C35.6244 41.25 36.6471 40.9187 37.4994 40.5874C38.3517 40.256 39.2039 39.759 40.0562 38.9307C40.9084 38.1024 41.2493 37.4398 41.7607 36.4458C42.1016 35.6175 42.272 34.6235 42.4425 33.1325C42.4425 31.6416 42.4425 31.1446 42.4425 27.5C42.4425 23.8554 42.4425 23.3584 42.4425 21.8675C42.4425 20.3765 42.1016 19.3825 41.7607 18.5542C41.4198 17.7259 40.9084 16.8976 40.0562 16.0693C39.2039 15.241 38.5221 14.9096 37.4994 14.4127C36.6471 14.0813 35.6244 13.9157 34.0903 13.75C32.5563 13.75 32.2154 13.75 28.295 13.75Z" fill="white"/>
<path d="M28.295 20.3765C24.2041 20.3765 20.9655 23.5241 20.9655 27.5C20.9655 31.4759 24.2041 34.6235 28.295 34.6235C32.3858 34.6235 35.6244 31.4759 35.6244 27.5C35.6244 23.5241 32.3858 20.3765 28.295 20.3765ZM28.295 32.1386C25.7382 32.1386 23.5223 30.1506 23.5223 27.5C23.5223 25.0151 25.5677 22.8614 28.295 22.8614C30.8518 22.8614 33.0676 24.8494 33.0676 27.5C33.0676 29.9849 30.8518 32.1386 28.295 32.1386Z" fill="white"/>
<path d="M35.7949 21.8675C36.7362 21.8675 37.4994 21.1258 37.4994 20.2108C37.4994 19.2959 36.7362 18.5542 35.7949 18.5542C34.8535 18.5542 34.0903 19.2959 34.0903 20.2108C34.0903 21.1258 34.8535 21.8675 35.7949 21.8675Z" fill="white"/>
</g>
</g>
<defs>
<radialGradient id="paint0_radial_24_318" cx="0" cy="0" r="1" gradientUnits="userSpaceOnUse" gradientTransform="translate(57.7285 1.11719) scale(130.683 127.011)">
<stop stop-color="#F9ED32"/>
<stop offset="0.36" stop-color="#EE2A7B"/>
<stop offset="0.44" stop-color="#D22A8A"/>
<stop offset="0.6" stop-color="#8B2AB2"/>
<stop offset="0.83" stop-color="#1B2AF0"/>
<stop offset="0.88" stop-color="#002AFF"/>
</radialGradient>
</defs>
</svg>
