<svg width="72" height="72" viewBox="0 0 72 72" fill="none" xmlns="http://www.w3.org/2000/svg">
<path d="M36 21.253C40.7711 21.253 41.4217 21.253 43.3735 21.253C45.1084 21.253 45.9759 21.6867 46.6265 21.9036C47.494 22.3374 48.1446 22.5542 48.7952 23.2048C49.4458 23.8554 49.8795 24.506 50.0964 25.3735C50.3133 26.0241 50.5301 26.8916 50.747 28.6265C50.747 30.5783 50.747 31.012 50.747 36C50.747 40.988 50.747 41.4217 50.747 43.3735C50.747 45.1084 50.3133 45.9759 50.0964 46.6265C49.6627 47.494 49.4458 48.1446 48.7952 48.7952C48.1446 49.4458 47.494 49.8795 46.6265 50.0964C45.9759 50.3133 45.1084 50.5301 43.3735 50.747C41.4217 50.747 40.988 50.747 36 50.747C31.012 50.747 30.5783 50.747 28.6265 50.747C26.8916 50.747 26.0241 50.3133 25.3735 50.0964C24.506 49.6627 23.8554 49.4458 23.2048 48.7952C22.5542 48.1446 22.1205 47.494 21.9036 46.6265C21.6867 45.9759 21.4699 45.1084 21.253 43.3735C21.253 41.4217 21.253 40.988 21.253 36C21.253 31.012 21.253 30.5783 21.253 28.6265C21.253 26.8916 21.6867 26.0241 21.9036 25.3735C22.3374 24.506 22.5542 23.8554 23.2048 23.2048C23.8554 22.5542 24.506 22.1205 25.3735 21.9036C26.0241 21.6867 26.8916 21.4699 28.6265 21.253C30.5783 21.253 31.2289 21.253 36 21.253ZM36 18C31.012 18 30.5783 18 28.6265 18C26.6747 18 25.3735 18.4337 24.2892 18.8675C23.2048 19.3012 22.1205 19.9518 21.0361 21.0361C19.9518 22.1205 19.5181 22.988 18.8675 24.2892C18.4337 25.3735 18.2169 26.6747 18 28.6265C18 30.5783 18 31.2289 18 36C18 40.988 18 41.4217 18 43.3735C18 45.3253 18.4337 46.6265 18.8675 47.7108C19.3012 48.7952 19.9518 49.8795 21.0361 50.9639C22.1205 52.0482 22.988 52.4819 24.2892 53.1325C25.3735 53.5663 26.6747 53.7831 28.6265 54C30.5783 54 31.2289 54 36 54C40.7711 54 41.4217 54 43.3735 54C45.3253 54 46.6265 53.5663 47.7108 53.1325C48.7952 52.6988 49.8795 52.0482 50.9639 50.9639C52.0482 49.8795 52.4819 49.0121 53.1325 47.7108C53.5663 46.6265 53.7831 45.3253 54 43.3735C54 41.4217 54 40.7711 54 36C54 31.2289 54 30.5783 54 28.6265C54 26.6747 53.5663 25.3735 53.1325 24.2892C52.6988 23.2048 52.0482 22.1205 50.9639 21.0361C49.8795 19.9518 49.0121 19.5181 47.7108 18.8675C46.6265 18.4337 45.3253 18.2169 43.3735 18C41.4217 18 40.988 18 36 18Z" fill="white"/>
<path d="M36 26.6747C30.7952 26.6747 26.6747 30.7952 26.6747 36C26.6747 41.2048 30.7952 45.3253 36 45.3253C41.2048 45.3253 45.3253 41.2048 45.3253 36C45.3253 30.7952 41.2048 26.6747 36 26.6747ZM36 42.0723C32.747 42.0723 29.9277 39.4699 29.9277 36C29.9277 32.747 32.5301 29.9277 36 29.9277C39.253 29.9277 42.0723 32.5301 42.0723 36C42.0723 39.253 39.253 42.0723 36 42.0723Z" fill="white"/>
<path d="M45.5422 28.6265C46.7399 28.6265 47.7108 27.6556 47.7108 26.4578C47.7108 25.2601 46.7399 24.2892 45.5422 24.2892C44.3444 24.2892 43.3735 25.2601 43.3735 26.4578C43.3735 27.6556 44.3444 28.6265 45.5422 28.6265Z" fill="white"/>
</svg>
