<svg width="58" height="55" viewBox="0 0 58 55" fill="none" xmlns="http://www.w3.org/2000/svg">
<g id="socials">
<rect id="Rectangle 1" x="0.928223" width="56.5901" height="55" rx="27.5" fill="#48C95F"/>
<path id="Vector" d="M40.4377 16.5859C37.6427 13.8789 33.916 12.375 29.9823 12.375C21.8044 12.375 15.1792 18.7917 15.1792 26.7122C15.1792 29.2188 15.9038 31.7253 17.1461 33.8307L15.0757 41.25L22.9431 39.2448C25.117 40.3477 27.4979 40.9492 29.9823 40.9492C38.1603 40.9492 44.7855 34.5326 44.7855 26.612C44.6819 22.9023 43.2327 19.293 40.4377 16.5859ZM37.1251 31.8255C36.8145 32.6276 35.3653 33.4297 34.6407 33.5299C34.0195 33.6302 33.1914 33.6302 32.3633 33.4297C31.8457 33.2292 31.121 33.0286 30.2929 32.6276C26.5662 31.1237 24.1853 27.5143 23.9783 27.2135C23.7712 27.013 22.4255 25.3086 22.4255 23.5039C22.4255 21.6992 23.3572 20.8971 23.6677 20.4961C23.9783 20.0951 24.3923 20.0951 24.7029 20.0951C24.9099 20.0951 25.2205 20.0951 25.4275 20.0951C25.6346 20.0951 25.9451 19.9948 26.2557 20.6966C26.5662 21.3984 27.2909 23.2031 27.3944 23.3034C27.4979 23.5039 27.4979 23.7044 27.3944 23.9049C27.2909 24.1055 27.1873 24.306 26.9803 24.5065C26.7733 24.707 26.5662 25.0078 26.4627 25.1081C26.2557 25.3086 26.0486 25.5091 26.2557 25.8099C26.4627 26.2109 27.1873 27.3138 28.326 28.3164C29.7753 29.5195 30.914 29.9206 31.3281 30.1211C31.7421 30.3216 31.9492 30.2214 32.1562 30.0208C32.3633 29.8203 33.0879 29.0182 33.2949 28.6172C33.502 28.2161 33.8125 28.3164 34.1231 28.4167C34.4336 28.5169 36.297 29.4193 36.6075 29.6198C37.0216 29.8203 37.2286 29.9206 37.3321 30.0208C37.4357 30.3216 37.4357 31.0234 37.1251 31.8255Z" fill="white"/>
</g>
</svg>
