<?xml version="1.0" encoding="utf-8"?>
<!-- Svg Vector Icons : http://www.onlinewebfonts.com/icon -->
<!DOCTYPE svg PUBLIC "-//W3C//DTD SVG 1.1//EN" "http://www.w3.org/Graphics/SVG/1.1/DTD/svg11.dtd">
<svg version="1.1" xmlns="http://www.w3.org/2000/svg" xmlns:xlink="http://www.w3.org/1999/xlink" x="0px" y="0px" viewBox="0 0 256 256" enable-background="new 0 0 256 256" xml:space="preserve">
<metadata> Svg Vector Icons : http://www.onlinewebfonts.com/icon </metadata>
<g><g><g><path fill="#000000" d="M47.9,12.9c-4.4,0.7-9.5,2.3-13.4,4.3C14.3,27.8,8.4,54.7,21.9,75.4C23,77.2,33,87.6,47.1,101.8l23.3,23.5l-24.9,25c-14.1,14.2-25.9,26.4-27.2,28.3c-15.2,21.7-9.2,49.8,12.9,60.8c6,2.9,10.9,4.1,17.8,4.1c6.4,0.1,10.2-0.7,16.5-3.1c8.2-3.2,9.9-4.6,37.1-32l25.3-25.5l26.2,26.1c29,28.9,29.4,29.2,38.9,32.4c10.7,3.5,20.6,3.1,30.2-1.3c20.8-9.5,28.7-34,17.9-55.4c-3.3-6.7-3.2-6.5-33.5-37.1l-22.1-22.2l23.1-23.2c18-18.1,23.7-24,25.7-27.1c8.3-12.8,9.4-28.3,3-41.3c-5.9-12.1-17.2-19.5-32.1-21c-6.4-0.7-16.9,1.4-23.3,4.7c-5.8,2.9-9.3,6.1-31.2,27.9L128,67.7l-22.4-22.3C93.1,33.1,82,22.2,80.5,21.2c-6.5-4.6-13.6-7.4-21.6-8.4C53.9,12.3,52.2,12.3,47.9,12.9z M58.4,33.6c7.2,1.5,7,1.3,39.7,33.8l30,29.9l30-29.9c28.7-28.6,30.1-30,33.7-31.7c10.8-5.2,21.7-2.4,26.6,6.8c1.5,2.8,1.8,3.7,1.9,7.7c0.3,5-0.5,8.1-2.8,12.3c-0.8,1.4-12.7,13.7-31.4,32.5l-30.2,30.3l32.4,32.5c31.1,31.2,32.5,32.7,34.3,36.3c4.1,8.5,3.1,17.4-2.7,23.1c-3.4,3.4-6.4,4.7-11.8,4.9c-5.1,0.3-8.9-0.6-12.8-2.8c-1.4-0.8-14.9-13.9-34.8-33.7l-32.6-32.4l-32.2,32.4c-30.9,31.1-32.4,32.5-36,34.3c-8.9,4.4-17.6,3.4-23.6-2.7c-6-5.9-6.9-14.4-2.7-23.1c1.8-3.6,3.3-5.2,34.3-36.3l32.4-32.5L69.7,94.7C43.6,68.7,39.1,63.9,38,61.5c-1.9-4.1-2.5-7-2.3-11.3c0.4-8.5,5.9-15.1,14-16.7C53,32.8,54.5,32.8,58.4,33.6z"/></g></g></g>
</svg>